<?xml version="1.0" encoding="UTF-8"?>
<svg width="752pt" height="752pt" version="1.1" viewBox="0 0 752 752" xmlns="http://www.w3.org/2000/svg">
 <g>
  <path d="m547.86 295.11c0 4.2109-3.4141 7.625-7.625 7.625-4.2109 0-7.625-3.4141-7.625-7.625 0-4.2109 3.4141-7.625 7.625-7.625 4.2109 0 7.625 3.4141 7.625 7.625"/>
  <path d="m585.32 286.78c-5.3047-0.61328-10.445-2.2188-15.156-4.7344-12.355-9.918-27.434-15.848-43.234-17-2.207-3.125-5.1328-5.6758-8.5273-7.4375-4.0898-2.0039-8.8438-2.1758-13.07-0.47266-4.1094 1.457-7.3203 4.7227-8.7148 8.8555-0.66016 2.1133-0.93359 4.3281-0.80469 6.5352-6.6484 3.6797-12.152 9.1211-15.91 15.723-1.2305 2.3203-2.4609 5.2109-3.7891 8.2891-4.7344 11.32-11.555 26.852-23.156 29.789-7.625 1.9414-17.191-1.6562-28.414-10.609-42.621-33.672-102.01-29.078-141.46 10.988-35.238 35.66-18.332 87.184-16.012 94.195 0 2.7461-4.7344 9.9453-24.957 15.059-14.859 3.1523-30.289-1.6133-40.777-12.598-4.9531-4.8125-8.5273-10.867-10.352-17.527-1.8242-6.6641-1.8281-13.691-0.019532-20.359 1.8906-8.4844 6.3125-16.195 12.68-22.117 6.3672-5.918 14.383-9.7656 22.98-11.031 7.8125 0.61719 22.496-2.1797 25.289-16.719 2.793-14.539-6.25-21.168-11.414-22.258-38.598-9.0469-70.609 14.918-85.246 42.621-17.945 34.238-12.074 72.125 15.109 96.988 49.203 44.801 98.977 17.43 114.27 7.0078l20.031 39.781 82.266 0.003906-0.94922-5.3516c-0.21484-1.25-0.51563-2.4844-0.89844-3.6953h17.902l-0.47266-5.1602c-1.5625-16.906-25.051-22.023-37.27-23.68l18.941-41.531v-0.003906c7.5273-1.7031 15.27-2.2812 22.969-1.7031 11.059 0.16406 21.387 5.5586 27.844 14.539l17.477 66.301h55.598v-4.7383c-0.011719-1.5117-0.18359-3.0195-0.51953-4.4961h21.973l-0.23828-4.7344c-0.75781-15.961-19.18-21.168-28.984-22.777l18.141-58.777c14.715-17.348 23.598-38.887 25.387-61.562 33.766-9.8516 56.121-29.789 59.387-40.871 1.0859-2.8281 0.53906-6.0273-1.4219-8.3359-3.5508-3.8828-9.8516-5.1133-16.48-6.3945zm-194.64 194.17h-11.082c-6.6016-6.1367-15.152-9.7578-24.152-10.227h2.4609c7.3398 0.28125 26 2.8867 32.727 10.277zm-39.688-10.844h-6.1562c5.0195-10.367 10.68-20.41 16.953-30.07 2.2617-3.6094 4.8281-7.0156 7.6719-10.184zm142.88 1.3242s18.469 1.2773 24.246 9.4727h-15.957c-6.1914-4.5391-13.738-6.8398-21.406-6.5352 4.7344-13.215 14.207-41.25 16.48-52.094 2.6523-1.6562 5.1133-3.3633 7.4844-5.1602l-16.91 54.035zm43.996-137.34-3.7891 0.99609 0.23828 3.8828c0.85156 12.93-7.957 54.887-43.996 76.008l-1.9883 1.1836-0.33203 2.2734c-1.0898 7.8633-13.922 45.32-18.941 59.102l-2.3242 7.3945 7.6719-0.99609c3.7891-0.47266 15.914-0.85156 21.359 3.9297 0.75 0.65625 1.3789 1.4453 1.8477 2.3242h-37.887l-15.816-60.145-0.51953-1.2305-0.003906-0.003906c-8.0625-12.039-21.504-19.379-35.992-19.652-23.301-0.61719-37.27 0.33203-53.516 25.621h0.003907c-8.2734 12.352-15.348 25.465-21.125 39.164l-2.9375 7.7188 8.2891-1.4688c0.33203 0 28.414-4.7344 36.703 9.8516h-64.312l-22.59-44.707-4.7344 3.8828c-2.1797 1.8477-53.988 44.66-106.55-3.2188-28.891-26.473-25.008-62.797-12.883-85.906 12.883-24.484 41.012-45.746 74.637-37.887 1.4219 0.37891 5.9688 2.2734 4.2148 11.27-1.9414 10.086-15.012 9.0469-15.582 8.9961h-0.80469v0.003906c-10.609 1.4648-20.527 6.1094-28.449 13.32-7.918 7.2109-13.473 16.648-15.926 27.074-2.2812 8.2695-2.3047 17-0.0625 25.281 2.2383 8.2773 6.6602 15.805 12.805 21.793 12.789 13.551 31.789 19.332 49.961 15.203 34.715-8.7148 32.348-24.531 32.016-26.52v-0.66406c0-0.51953-19.18-51.715 13.449-84.914 35.992-36.559 89.98-40.871 128.86-10.23 13.922 11.035 25.906 15.059 36.656 12.359 16.148-4.0742 23.68-22.07 29.551-35.234 1.2773-2.9375 2.3672-5.5898 3.457-7.6719l-0.003906 0.003907c2.3086-4.0977 5.5547-7.5859 9.4727-10.184 1.3398 3.6992 3.0547 7.2539 5.1133 10.609l8.0039-5.0195c-2.5117-3.9766-7.1523-13.875-5.4453-18.941v-0.003906c0.5-1.4375 1.6641-2.5508 3.125-2.9844 1.7578-0.8125 3.7852-0.8125 5.543 0 5.3516 2.6055 9.1875 11.699 10.184 14.965l9.0469-2.7461c0-0.37891-0.47266-1.5156-1.0898-3.0312h-0.003906c11.77 2.1484 22.828 7.1562 32.203 14.59 5.8125 3.3984 12.258 5.5742 18.945 6.3906 3.6758 0.48047 7.2617 1.4844 10.652 2.9844-1.75 6.3477-21.785 26.188-56.402 35.375z"/>
 </g>
</svg>
